<svg width="175" height="175" viewBox="0 0 25 32" fill="none" xmlns="http://www.w3.org/2000/svg">
<path d="M23.4375 12.125H21.875V9.78125C21.875 9.34961 21.5254 9 21.0938 9H16.4062C15.9746 9 15.625 9.34961 15.625 9.78125V12.125H9.375V9.78125C9.375 9.34961 9.02539 9 8.59375 9H3.90625C3.47461 9 3.125 9.34961 3.125 9.78125V12.125H1.5625C0.699707 12.125 0 12.8247 0 13.6875V26.1875C0 27.0503 0.699707 27.75 1.5625 27.75H23.4375C24.3003 27.75 25 27.0503 25 26.1875V13.6875C25 12.8247 24.3003 12.125 23.4375 12.125ZM9.375 18.7656C9.375 18.9814 9.2002 19.1562 8.98438 19.1562H3.51562C3.2998 19.1562 3.125 18.9814 3.125 18.7656V17.9844C3.125 17.7686 3.2998 17.5938 3.51562 17.5938H8.98438C9.2002 17.5938 9.375 17.7686 9.375 17.9844V18.7656ZM21.875 18.7656C21.875 18.9814 21.7002 19.1562 21.4844 19.1562H19.5312V21.1094C19.5312 21.3252 19.3564 21.5 19.1406 21.5H18.3594C18.1436 21.5 17.9688 21.3252 17.9688 21.1094V19.1562H16.0156C15.7998 19.1562 15.625 18.9814 15.625 18.7656V17.9844C15.625 17.7686 15.7998 17.5938 16.0156 17.5938H17.9688V15.6406C17.9688 15.4248 18.1436 15.25 18.3594 15.25H19.1406C19.3564 15.25 19.5312 15.4248 19.5312 15.6406V17.5938H21.4844C21.7002 17.5938 21.875 17.7686 21.875 17.9844V18.7656Z" fill="#BFFF00"/>
<path d="M20.05 1.3V2.6H20.7V3.9H20.05V5.2H10.3V1.3H20.05ZM20.375 0H9.975C9.43652 0 9 0.436516 9 0.975V5.525C9 6.06348 9.43652 6.5 9.975 6.5H20.375C20.9135 6.5 21.35 6.06348 21.35 5.525V5.2H21.5125C21.7817 5.2 22 4.98174 22 4.7125V1.7875C22 1.51826 21.7817 1.3 21.5125 1.3H21.35V0.975C21.35 0.436516 20.9135 0 20.375 0ZM13.55 1.95H10.95V4.55H13.55V1.95Z" fill="#BFFF00"/>
</svg>
