<svg width="181" height="181" viewBox="0 0 25 25" fill="none" xmlns="http://www.w3.org/2000/svg">
<g clip-path="url(#clip0_285:48)">
<path d="M14.8437 20.3125H11.7187C11.5115 20.3125 11.3128 20.3948 11.1663 20.5413C11.0198 20.6878 10.9375 20.8865 10.9375 21.0938V22.6562C10.9375 22.8635 11.0198 23.0622 11.1663 23.2087C11.3128 23.3552 11.5115 23.4375 11.7187 23.4375H14.8437C15.0509 23.4375 15.2496 23.3552 15.3962 23.2087C15.5427 23.0622 15.625 22.8635 15.625 22.6562V21.0938C15.625 20.8865 15.5427 20.6878 15.3962 20.5413C15.2496 20.3948 15.0509 20.3125 14.8437 20.3125ZM8.59373 17.1875H6.24998V2.34375C6.24998 2.13655 6.16767 1.93784 6.02115 1.79132C5.87464 1.64481 5.67593 1.5625 5.46873 1.5625H3.90623C3.69903 1.5625 3.50031 1.64481 3.3538 1.79132C3.20729 1.93784 3.12498 2.13655 3.12498 2.34375V17.1875H0.781227C0.0883555 17.1875 -0.26223 18.0293 0.229957 18.521L4.13621 23.2085C4.28271 23.3549 4.48134 23.4371 4.68845 23.4371C4.89556 23.4371 5.0942 23.3549 5.2407 23.2085L9.14695 18.521C9.63621 18.0303 9.28806 17.1875 8.59373 17.1875ZM21.0937 7.8125H11.7187C11.5115 7.8125 11.3128 7.89481 11.1663 8.04132C11.0198 8.18784 10.9375 8.38655 10.9375 8.59375V10.1562C10.9375 10.3635 11.0198 10.5622 11.1663 10.7087C11.3128 10.8552 11.5115 10.9375 11.7187 10.9375H21.0937C21.3009 10.9375 21.4996 10.8552 21.6462 10.7087C21.7927 10.5622 21.875 10.3635 21.875 10.1562V8.59375C21.875 8.38655 21.7927 8.18784 21.6462 8.04132C21.4996 7.89481 21.3009 7.8125 21.0937 7.8125ZM17.9687 14.0625H11.7187C11.5115 14.0625 11.3128 14.1448 11.1663 14.2913C11.0198 14.4378 10.9375 14.6365 10.9375 14.8438V16.4062C10.9375 16.6135 11.0198 16.8122 11.1663 16.9587C11.3128 17.1052 11.5115 17.1875 11.7187 17.1875H17.9687C18.1759 17.1875 18.3746 17.1052 18.5212 16.9587C18.6677 16.8122 18.75 16.6135 18.75 16.4062V14.8438C18.75 14.6365 18.6677 14.4378 18.5212 14.2913C18.3746 14.1448 18.1759 14.0625 17.9687 14.0625ZM24.2187 1.5625H11.7187C11.5115 1.5625 11.3128 1.64481 11.1663 1.79132C11.0198 1.93784 10.9375 2.13655 10.9375 2.34375V3.90625C10.9375 4.11345 11.0198 4.31216 11.1663 4.45868C11.3128 4.60519 11.5115 4.6875 11.7187 4.6875H24.2187C24.4259 4.6875 24.6246 4.60519 24.7712 4.45868C24.9177 4.31216 25 4.11345 25 3.90625V2.34375C25 2.13655 24.9177 1.93784 24.7712 1.79132C24.6246 1.64481 24.4259 1.5625 24.2187 1.5625V1.5625Z" fill="#BFFF00"/>
</g>
<defs>
<clipPath id="clip0_285:48">
<rect width="25" height="25" fill="white"/>
</clipPath>
</defs>
</svg>
