<svg width="181" height="181" viewBox="0 0 25 25" fill="none" xmlns="http://www.w3.org/2000/svg">
<g clip-path="url(#clip0_285:46)">
<path d="M24.8781 18.866L18.8108 4.97708C18.5951 4.48315 18.125 4.16675 17.6077 4.16675H13.372L13.4783 5.17196C13.5 5.37682 13.339 5.55564 13.1328 5.55564H11.8672C11.661 5.55564 11.5 5.37682 11.5217 5.17196L11.6281 4.16675H7.39238C6.87458 4.16675 6.40453 4.48315 6.18882 4.97708L0.121542 18.866C-0.279933 19.7857 0.360692 20.8334 1.32554 20.8334H9.86894L10.3164 16.5938C10.3537 16.2405 10.6515 15.9723 11.007 15.9723H13.9931C14.3485 15.9723 14.6463 16.2405 14.6836 16.5938L15.1311 20.8334H23.6745C24.6393 20.8334 25.28 19.7857 24.8781 18.866ZM11.3021 7.25529C11.3111 7.16996 11.3514 7.09098 11.4152 7.03359C11.479 6.97621 11.5618 6.94448 11.6476 6.94453H13.3529C13.5304 6.94453 13.6797 7.07864 13.6984 7.25529L13.898 9.14678C13.9306 9.45451 13.6892 9.7223 13.3802 9.7223H11.6207C11.3112 9.7223 11.0703 9.45451 11.1029 9.14678L11.3021 7.25529V7.25529ZM13.6997 14.5834H11.2999C10.8876 14.5834 10.566 14.2262 10.6094 13.8161L10.8294 11.7327C10.8668 11.3794 11.1645 11.1112 11.52 11.1112H13.4796C13.8351 11.1112 14.1328 11.3794 14.1702 11.7327L14.3902 13.8161C14.4336 14.2262 14.112 14.5834 13.6997 14.5834V14.5834Z" fill="#BFFF00"/>
</g>
<defs>
<clipPath id="clip0_285:46">
<rect width="25" height="25" fill="white"/>
</clipPath>
</defs>
</svg>
