<?xml version="1.0" standalone="no"?>
<!DOCTYPE svg PUBLIC "-//W3C//DTD SVG 20010904//EN"
 "http://www.w3.org/TR/2001/REC-SVG-20010904/DTD/svg10.dtd">
<svg version="1.0" xmlns="http://www.w3.org/2000/svg"
 width="141.000000pt" height="141.000000pt" viewBox="0 0 100.000000 100.000000"
 preserveAspectRatio="xMidYMid meet">

<g transform="translate(0.000000,100.000000) scale(0.100000,-0.100000)"
fill="#0F4C81" stroke="none">
<path d="M501 894 c-46 -38 -57 -63 -37 -82 14 -15 18 -14 43 4 15 11 36 32
46 47 17 22 18 29 7 42 -17 20 -23 19 -59 -11z"/>
<path d="M711 894 c-46 -38 -57 -63 -37 -82 14 -15 18 -14 43 4 15 11 36 32
46 47 17 22 18 29 7 42 -17 20 -23 19 -59 -11z"/>
<path d="M831 774 c-46 -38 -57 -63 -37 -82 14 -15 18 -14 43 4 15 11 36 32
46 47 17 22 18 29 7 42 -17 20 -23 19 -59 -11z"/>
<path d="M346 754 c-9 -8 -16 -22 -16 -29 0 -18 27 -45 45 -45 18 0 45 27 45
45 0 18 -27 45 -45 45 -7 0 -21 -7 -29 -16z"/>
<path d="M556 754 c-9 -8 -16 -22 -16 -29 0 -18 27 -45 45 -45 18 0 45 27 45
45 0 18 -27 45 -45 45 -7 0 -21 -7 -29 -16z"/>
<path d="M676 634 c-9 -8 -16 -22 -16 -29 0 -18 27 -45 45 -45 18 0 45 27 45
45 0 18 -27 45 -45 45 -7 0 -21 -7 -29 -16z"/>
<path d="M100 605 c-10 -12 -10 -18 0 -30 7 -8 18 -15 26 -15 17 0 -16 -80
-45 -109 -18 -18 -21 -34 -21 -95 0 -70 2 -76 28 -95 15 -11 42 -35 59 -53 27
-27 40 -33 77 -33 35 0 51 6 73 28 29 27 30 27 168 27 138 0 139 0 168 -27 22
-22 38 -28 72 -28 40 0 49 5 90 47 44 46 45 49 45 111 0 77 -14 93 -91 111
-49 10 -56 16 -99 76 -69 98 -75 100 -326 100 -176 0 -214 -3 -224 -15z m230
-90 l0 -45 -84 0 -85 0 16 38 c8 20 17 40 20 45 2 4 33 7 69 7 l64 0 0 -45z
m246 9 c19 -19 34 -40 34 -45 0 -5 -49 -9 -110 -9 l-110 0 0 45 0 45 76 0 c75
0 77 -1 110 -36z m-318 -216 c15 -15 15 -51 0 -66 -15 -15 -51 -15 -66 0 -15
15 -15 51 0 66 7 7 21 12 33 12 12 0 26 -5 33 -12z m480 0 c28 -28 7 -78 -33
-78 -27 0 -45 18 -45 45 0 27 18 45 45 45 12 0 26 -5 33 -12z"/>
</g>
</svg>
