<?xml version="1.0" standalone="no"?>
<!DOCTYPE svg PUBLIC "-//W3C//DTD SVG 20010904//EN"
 "http://www.w3.org/TR/2001/REC-SVG-20010904/DTD/svg10.dtd">
<svg version="1.0" xmlns="http://www.w3.org/2000/svg"
 width="141.000000pt" height="141.000000pt" viewBox="0 0 100.000000 100.000000"
 preserveAspectRatio="xMidYMid meet">

<g transform="translate(0.000000,100.000000) scale(0.100000,-0.100000)"
fill="#0F4C81" stroke="none">
<path d="M265 679 c-99 -39 -186 -77 -194 -85 -20 -18 -6 -44 24 -44 26 0 26
-2 24 -52 l-3 -53 43 -14 c36 -11 52 -12 90 -1 58 16 104 16 162 0 40 -11 54
-10 103 5 53 17 59 17 111 0 37 -11 68 -15 93 -10 47 9 92 32 92 48 0 6 7 25
15 40 13 25 12 33 -7 83 -29 74 -52 89 -118 75 -51 -11 -52 -11 -112 30 -94
64 -110 63 -323 -22z m261 -10 c19 -11 34 -22 34 -24 0 -3 -177 -75 -185 -75
-5 0 -37 72 -33 75 19 12 109 44 127 44 13 1 39 -8 57 -20z m-227 -80 c14 -40
14 -46 -1 -52 -7 -3 -37 -14 -66 -26 l-53 -21 3 46 c3 45 5 47 48 65 59 23 56
24 69 -12z m458 -76 c9 -24 -33 -56 -58 -43 -24 13 -25 56 -2 69 20 11 51 -2
60 -26z"/>
<path d="M64 376 c-11 -28 2 -42 56 -59 62 -20 121 -21 173 -3 31 11 43 11 75
0 47 -17 117 -17 164 0 32 11 44 11 75 0 52 -18 119 -17 178 5 41 14 50 21 50
42 0 28 -17 29 -97 8 -39 -10 -57 -10 -95 0 -27 7 -59 13 -73 13 -14 0 -46 -6
-72 -13 -39 -10 -57 -10 -95 0 -27 7 -59 13 -73 13 -14 0 -46 -6 -72 -13 -38
-10 -58 -10 -95 0 -27 7 -58 15 -70 18 -15 3 -25 0 -29 -11z"/>
<path d="M64 256 c-11 -28 2 -42 56 -59 62 -20 121 -21 173 -3 31 11 43 11 75
0 47 -17 117 -17 164 0 32 11 44 11 75 0 52 -18 119 -17 178 5 41 14 50 21 50
42 0 28 -17 29 -97 8 -39 -10 -57 -10 -95 0 -27 7 -59 13 -73 13 -14 0 -46 -6
-72 -13 -39 -10 -57 -10 -95 0 -27 7 -59 13 -73 13 -14 0 -46 -6 -72 -13 -38
-10 -58 -10 -95 0 -27 7 -58 15 -70 18 -15 3 -25 0 -29 -11z"/>
</g>
</svg>
