<?xml version="1.0" encoding="UTF-8"?>
<!DOCTYPE svg PUBLIC "-//W3C//DTD SVG 1.1//EN" "http://www.w3.org/Graphics/SVG/1.1/DTD/svg11.dtd">
<svg xmlns="http://www.w3.org/2000/svg" version="1.1" width="181px" height="181px" style="shape-rendering:geometricPrecision; text-rendering:geometricPrecision; image-rendering:optimizeQuality; fill-rule:evenodd; clip-rule:evenodd" xmlns:xlink="http://www.w3.org/1999/xlink">
<g><path style="opacity:0.903" fill="#0F4C81" d="M 150.5,94.5 C 149.167,94.5 148.5,95.1667 148.5,96.5C 141.159,96.6663 133.826,96.4997 126.5,96C 118.167,91.3333 109.833,91.3333 101.5,96C 93.8333,96.6667 86.1667,96.6667 78.5,96C 70.3217,91.5275 61.9884,91.3608 53.5,95.5C 46.1968,96.4973 38.8635,96.8306 31.5,96.5C 31.5,95.1667 30.8333,94.5 29.5,94.5C 26.2655,93.424 22.9322,92.7573 19.5,92.5C 19.248,89.6301 20.248,87.2967 22.5,85.5C 23.6623,80.533 23.8289,75.533 23,70.5C 19.579,73.124 16.079,73.124 12.5,70.5C 11.6301,68.5934 10.6301,66.7601 9.5,65C 10.7107,62.7427 12.0441,60.576 13.5,58.5C 34.8333,49.8333 56.1667,41.1667 77.5,32.5C 86.9867,29.5305 96.6533,28.8638 106.5,30.5C 113.833,35.1667 121.167,39.8333 128.5,44.5C 130,44.8333 131.5,45.1667 133,45.5C 140.77,43.4887 148.603,43.1554 156.5,44.5C 162.418,52.2435 166.418,60.9102 168.5,70.5C 166.172,77.1302 163.839,83.7969 161.5,90.5C 158.049,92.4281 154.382,93.7614 150.5,94.5 Z M 86.5,44.5 C 95.2737,43.1768 102.94,45.3435 109.5,51C 97.5916,55.074 86.0916,59.9073 75,65.5C 74.4776,61.2878 72.9776,57.4545 70.5,54C 71.0223,53.0497 71.689,52.2164 72.5,51.5C 77.6381,49.7033 82.3048,47.3699 86.5,44.5 Z M 52.5,58.5 C 53.9305,58.4208 55.2638,58.7542 56.5,59.5C 58.4836,63.2737 59.4836,67.2737 59.5,71.5C 51.7291,73.8863 44.0625,76.553 36.5,79.5C 36.3342,74.8215 36.5008,70.1548 37,65.5C 42.6306,63.6734 47.7973,61.34 52.5,58.5 Z M 140.5,72.5 C 146.653,72.4837 149.486,75.4837 149,81.5C 143.691,87.0895 139.525,86.2562 136.5,79C 137.675,76.6751 139.008,74.5085 140.5,72.5 Z"/></g>
<g><path style="opacity:0.004" fill="#48ff00" d="M 29.5,94.5 C 30.8333,94.5 31.5,95.1667 31.5,96.5C 30.1667,96.5 29.5,95.8333 29.5,94.5 Z"/></g>
<g><path style="opacity:0.004" fill="#48ff00" d="M 150.5,94.5 C 150.5,95.8333 149.833,96.5 148.5,96.5C 148.5,95.1667 149.167,94.5 150.5,94.5 Z"/></g>
<g><path style="opacity:0.844" fill="#0F4C81" d="M 160.5,116.5 C 159.167,116.5 158.5,117.167 158.5,118.5C 146.907,120.551 135.241,120.885 123.5,119.5C 120.145,118.911 116.978,117.911 114,116.5C 106.347,119.381 98.3466,120.714 90,120.5C 81.6534,120.714 73.6534,119.381 66,116.5C 58.3466,119.381 50.3466,120.714 42,120.5C 35.0984,120.22 28.2651,119.554 21.5,118.5C 21.5,117.167 20.8333,116.5 19.5,116.5C 16.8333,115.833 14.1667,115.167 11.5,114.5C 11.8588,112.234 11.1922,110.401 9.5,109C 11.291,106.894 11.9577,104.394 11.5,101.5C 21.703,102.511 31.8696,103.844 42,105.5C 50.1835,105.215 58.1835,103.882 66,101.5C 73.8165,103.882 81.8165,105.215 90,105.5C 98.1835,105.215 106.184,103.882 114,101.5C 121.816,103.882 129.816,105.215 138,105.5C 148.13,103.844 158.297,102.511 168.5,101.5C 168.5,105.833 168.5,110.167 168.5,114.5C 165.833,115.167 163.167,115.833 160.5,116.5 Z"/></g>
<g><path style="opacity:0.004" fill="#48ff00" d="M 19.5,116.5 C 20.8333,116.5 21.5,117.167 21.5,118.5C 20.1667,118.5 19.5,117.833 19.5,116.5 Z"/></g>
<g><path style="opacity:0.004" fill="#48ff00" d="M 160.5,116.5 C 160.5,117.833 159.833,118.5 158.5,118.5C 158.5,117.167 159.167,116.5 160.5,116.5 Z"/></g>
<g><path style="opacity:0.849" fill="#0F4C81" d="M 160.5,140.5 C 159.167,140.5 158.5,141.167 158.5,142.5C 146.907,144.551 135.241,144.885 123.5,143.5C 120.145,142.911 116.978,141.911 114,140.5C 106.347,143.381 98.3466,144.714 90,144.5C 83.0984,144.22 76.2651,143.554 69.5,142.5C 69.5,141.167 68.8333,140.5 67.5,140.5C 52.4147,144.918 37.0814,145.584 21.5,142.5C 21.5,141.167 20.8333,140.5 19.5,140.5C 16.8333,139.833 14.1667,139.167 11.5,138.5C 11.8588,136.234 11.1922,134.401 9.5,133C 11.291,130.894 11.9577,128.394 11.5,125.5C 21.703,126.511 31.8696,127.844 42,129.5C 50.1835,129.215 58.1835,127.882 66,125.5C 73.8165,127.882 81.8165,129.215 90,129.5C 98.1835,129.215 106.184,127.882 114,125.5C 121.816,127.882 129.816,129.215 138,129.5C 144.649,130.129 150.815,128.962 156.5,126C 160.486,125.501 164.486,125.334 168.5,125.5C 168.5,129.833 168.5,134.167 168.5,138.5C 165.833,139.167 163.167,139.833 160.5,140.5 Z"/></g>
<g><path style="opacity:0.004" fill="#37ff00" d="M 67.5,140.5 C 68.8333,140.5 69.5,141.167 69.5,142.5C 68.1667,142.5 67.5,141.833 67.5,140.5 Z"/></g>
<g><path style="opacity:0.004" fill="#48ff00" d="M 19.5,140.5 C 20.8333,140.5 21.5,141.167 21.5,142.5C 20.1667,142.5 19.5,141.833 19.5,140.5 Z"/></g>
<g><path style="opacity:0.004" fill="#48ff00" d="M 160.5,140.5 C 160.5,141.833 159.833,142.5 158.5,142.5C 158.5,141.167 159.167,140.5 160.5,140.5 Z"/></g>
</svg>
