<?xml version="1.0" encoding="UTF-8"?>
<!DOCTYPE svg PUBLIC "-//W3C//DTD SVG 1.1//EN" "http://www.w3.org/Graphics/SVG/1.1/DTD/svg11.dtd">
<svg xmlns="http://www.w3.org/2000/svg" version="1.1" width="181px" height="181px" style="shape-rendering:geometricPrecision; text-rendering:geometricPrecision; image-rendering:optimizeQuality; fill-rule:evenodd; clip-rule:evenodd" xmlns:xlink="http://www.w3.org/1999/xlink">
<g><path style="opacity:0.941" fill="#0F4C81" d="M 123.5,17.5 C 132.5,17.5 141.5,17.5 150.5,17.5C 150.5,19.5 150.5,21.5 150.5,23.5C 156.5,23.5 162.5,23.5 168.5,23.5C 168.579,25.6663 169.246,27.6663 170.5,29.5C 169.106,31.6457 168.44,33.979 168.5,36.5C 162.5,36.5 156.5,36.5 150.5,36.5C 150.5,40.1667 150.5,43.8333 150.5,47.5C 156.5,47.5 162.5,47.5 168.5,47.5C 168.579,49.6663 169.246,51.6663 170.5,53.5C 169.106,55.6457 168.44,57.979 168.5,60.5C 162.5,60.5 156.5,60.5 150.5,60.5C 150.5,62.5 150.5,64.5 150.5,66.5C 141.475,66.8315 132.475,66.4982 123.5,65.5C 122.5,64.5 121.5,63.5 120.5,62.5C 119.167,48.8333 119.167,35.1667 120.5,21.5C 121.934,20.4116 122.934,19.0783 123.5,17.5 Z"/></g>
<g><path style="opacity:0.938" fill="#0F4C81" d="M 21.5,35.5 C 50.5,35.5 79.5,35.5 108.5,35.5C 108.5,39.8333 108.5,44.1667 108.5,48.5C 82.4979,48.3334 56.4979,48.5 30.5,49C 29.4366,50.1882 28.1033,50.6882 26.5,50.5C 24.983,53.5873 24.3163,56.9206 24.5,60.5C 20.1667,60.5 15.8333,60.5 11.5,60.5C 10.8938,53.8725 11.8938,47.5392 14.5,41.5C 16.7902,39.2272 19.1235,37.2272 21.5,35.5 Z"/></g>
<g><path style="opacity:0.775" fill="#0F4C81" d="M 11.5,71.5 C 15.5138,71.3345 19.5138,71.5012 23.5,72C 24.8333,76 24.8333,80 23.5,84C 19.5138,84.4988 15.5138,84.6655 11.5,84.5C 11.5,80.1667 11.5,75.8333 11.5,71.5 Z"/></g>
<g><path style="opacity:0.942" fill="#0F4C81" d="M 35.5,71.5 C 57.1769,71.167 78.8436,71.5003 100.5,72.5C 106.623,74.6215 111.623,78.2882 115.5,83.5C 118.918,89.3369 122.584,95.0036 126.5,100.5C 140.019,102.869 153.352,105.869 166.5,109.5C 168.64,120.397 168.974,131.397 167.5,142.5C 164.862,146.475 161.195,148.808 156.5,149.5C 149.568,161.677 139.234,165.677 125.5,161.5C 120.342,159.349 117.009,155.682 115.5,150.5C 98.5,150.5 81.5,150.5 64.5,150.5C 61.2474,159.392 54.7474,163.392 45,162.5C 35.2526,163.392 28.7526,159.392 25.5,150.5C 20.4111,151.291 16.0778,149.958 12.5,146.5C 11.5005,129.513 11.1672,112.513 11.5,95.5C 15.5138,95.3345 19.5138,95.5012 23.5,96C 24.4061,97.6995 24.7394,99.5328 24.5,101.5C 52.1667,101.5 79.8333,101.5 107.5,101.5C 104.447,91.7911 97.78,86.4578 87.5,85.5C 70.1795,84.5005 52.8461,84.1672 35.5,84.5C 35.2849,82.2257 34.6182,80.059 33.5,78C 34.6182,75.941 35.2849,73.7743 35.5,71.5 Z M 40.5,134.5 C 50.8164,133.194 53.8164,137.194 49.5,146.5C 38.9706,148.448 35.9706,144.448 40.5,134.5 Z M 130.5,134.5 C 140.816,133.194 143.816,137.194 139.5,146.5C 128.971,148.448 125.971,144.448 130.5,134.5 Z"/></g>
</svg>
