<svg width="181" height="181" viewBox="0 0 25 30" fill="none" xmlns="http://www.w3.org/2000/svg">
<path d="M14.5833 24.3333H0.694444C0.310764 24.3333 0 24.7062 0 25.1667V26.8333C0 27.2937 0.310764 27.6667 0.694444 27.6667H14.5833C14.967 27.6667 15.2778 27.2937 15.2778 26.8333V25.1667C15.2778 24.7062 14.967 24.3333 14.5833 24.3333ZM23.6111 7.66667V5.16667C23.6111 4.70625 23.3003 4.33333 22.9167 4.33333C22.533 4.33333 22.2222 4.70625 22.2222 5.16667V7.66667H20.8333V5.16667C20.8333 4.70625 20.5226 4.33333 20.1389 4.33333C19.7552 4.33333 19.4444 4.70625 19.4444 5.16667V7.66667H18.75C18.3663 7.66667 18.0556 8.03958 18.0556 8.5V10.1667C18.0556 12.0292 19.0807 13.588 20.4861 14.1214V20.2927C20.4861 21.0193 20.0738 21.6948 19.4766 21.813C18.7161 21.9635 18.0556 21.2599 18.0556 20.375V18.9167C18.0556 16.3854 16.3455 14.3333 14.2361 14.3333H13.8889V4.33333C13.8889 2.49219 12.6454 1 11.1111 1H4.16667C2.63238 1 1.38889 2.49219 1.38889 4.33333V22.6667H13.8889V16.8333H14.2361C15.1949 16.8333 15.9722 17.7661 15.9722 18.9167V20.1984C15.9722 22.2646 17.2274 24.113 18.9414 24.3135C20.9076 24.5443 22.5694 22.688 22.5694 20.375V14.1214C23.9748 13.588 25 12.0292 25 10.1667V8.5C25 8.03958 24.6892 7.66667 24.3056 7.66667H23.6111ZM11.2886 10.1542L7.22179 17.3938C7.1263 17.5672 6.95226 17.6667 6.77083 17.6667C6.43793 17.6667 6.1862 17.3396 6.26432 16.9937L7.26345 12.6667H4.6875C4.37283 12.6667 4.12977 12.3755 4.17144 12.0474L4.86589 6.47448C4.90017 6.20312 5.12066 6 5.38194 6H8.33333C8.67535 6 8.92448 6.34062 8.83681 6.68802L8.33333 9.33333H10.8377C11.2387 9.33333 11.4891 9.79062 11.2886 10.1542Z" fill="#BFFF00"/>
</svg>
