<?xml version="1.0" encoding="UTF-8"?>
<!DOCTYPE svg PUBLIC "-//W3C//DTD SVG 1.1//EN" "http://www.w3.org/Graphics/SVG/1.1/DTD/svg11.dtd">
<svg xmlns="http://www.w3.org/2000/svg" version="1.1" width="181px" height="181px" style="shape-rendering:geometricPrecision; text-rendering:geometricPrecision; image-rendering:optimizeQuality; fill-rule:evenodd; clip-rule:evenodd" xmlns:xlink="http://www.w3.org/1999/xlink">
<g><path style="opacity:0.937" fill="#beff00" d="M 112.5,118.5 C 111.167,118.5 110.5,119.167 110.5,120.5C 103.804,133.229 97.1369,145.896 90.5,158.5C 86.1667,158.5 81.8333,158.5 77.5,158.5C 78.4591,137.601 81.1258,116.934 85.5,96.5C 72.8333,96.5 60.1667,96.5 47.5,96.5C 47.1718,91.1254 47.5052,85.7921 48.5,80.5C 54.2999,57.1592 59.9666,33.8258 65.5,10.5C 81.8333,10.5 98.1667,10.5 114.5,10.5C 114.827,15.2137 114.493,19.8804 113.5,24.5C 107.591,40.6062 101.258,56.4396 94.5,72C 107.162,72.4999 119.829,72.6666 132.5,72.5C 132.824,76.5546 132.491,80.5546 131.5,84.5C 124.657,95.5925 118.324,106.926 112.5,118.5 Z"/></g>
<g><path style="opacity:0.004" fill="#37ff00" d="M 112.5,118.5 C 112.5,119.833 111.833,120.5 110.5,120.5C 110.5,119.167 111.167,118.5 112.5,118.5 Z"/></g>
</svg>
