<?xml version="1.0" standalone="no"?>
<!DOCTYPE svg PUBLIC "-//W3C//DTD SVG 20010904//EN"
 "http://www.w3.org/TR/2001/REC-SVG-20010904/DTD/svg10.dtd">
<svg version="1.0" xmlns="http://www.w3.org/2000/svg"
 width="141.000000pt" height="141.000000pt" viewBox="0 0 100.000000 100.000000"
 preserveAspectRatio="xMidYMid meet">

<g transform="translate(0.000000,100.000000) scale(0.100000,-0.100000)"
fill="#BFFF00" stroke="none">
<path d="M262 705 c-58 -18 -115 -58 -147 -105 -27 -39 -55 -117 -55 -153 0
-11 -8 -29 -17 -39 -15 -17 -16 -20 0 -35 15 -15 26 -15 107 -5 50 7 127 24
173 38 102 32 244 105 282 143 31 33 28 61 -6 61 -11 0 -41 17 -64 38 -74 65
-178 87 -273 57z"/>
<path d="M725 588 c-11 -6 -52 -42 -92 -79 -111 -105 -266 -168 -490 -200 -46
-6 -83 -13 -83 -14 0 -2 16 -13 35 -25 29 -18 34 -27 32 -53 -2 -32 -1 -32 47
-35 35 -2 53 2 68 15 15 14 33 17 81 15 34 -2 88 4 120 13 l58 15 26 -30 c21
-26 32 -30 73 -30 27 0 52 5 55 10 4 6 -3 40 -16 77 l-22 66 34 29 c69 59 76
62 101 44 74 -52 148 37 103 124 -30 59 -85 83 -130 58z"/>
</g>
</svg>
