<?xml version="1.0" encoding="UTF-8"?>
<!DOCTYPE svg PUBLIC "-//W3C//DTD SVG 1.1//EN" "http://www.w3.org/Graphics/SVG/1.1/DTD/svg11.dtd">
<svg xmlns="http://www.w3.org/2000/svg" version="1.1" width="181px" height="181px" style="shape-rendering:geometricPrecision; text-rendering:geometricPrecision; image-rendering:optimizeQuality; fill-rule:evenodd; clip-rule:evenodd" xmlns:xlink="http://www.w3.org/1999/xlink">
<g><path style="opacity:0.948" fill="#bfff00" d="M 50.5,40.5 C 74.1737,35.8415 94.507,41.8415 111.5,58.5C 114.833,59.1667 118.167,59.8333 121.5,60.5C 123.669,64.2901 124.002,68.2901 122.5,72.5C 104.801,87.0181 84.8008,97.3514 62.5,103.5C 52.2017,105.658 41.8684,107.658 31.5,109.5C 21.8563,110.498 12.1896,110.832 2.5,110.5C 2.5,106.5 2.5,102.5 2.5,98.5C 4.5,98.5 6.5,98.5 8.5,98.5C 7.67997,77.8073 15.68,61.474 32.5,49.5C 38.6838,46.4081 44.6838,43.4081 50.5,40.5 Z"/></g>
<g><path style="opacity:0.923" fill="#beff00" d="M 133.5,106.5 C 132.167,106.5 131.5,107.167 131.5,108.5C 127.579,110.589 124.912,113.756 123.5,118C 124.868,122.937 126.534,127.77 128.5,132.5C 129.492,136.783 129.826,141.116 129.5,145.5C 121.14,145.831 112.807,145.498 104.5,144.5C 100.71,141.547 97.8767,137.88 96,133.5C 94.7955,134.859 93.2955,135.859 91.5,136.5C 88.8333,137.167 86.1667,137.833 83.5,138.5C 72.1667,139.167 60.8333,139.833 49.5,140.5C 48.1667,141.833 46.8333,143.167 45.5,144.5C 37.1932,145.498 28.8599,145.831 20.5,145.5C 19.9347,140.678 20.6013,136.178 22.5,132C 17.6808,131.255 13.3475,129.422 9.5,126.5C 8.52577,124.257 8.19244,121.924 8.5,119.5C 18.6037,119.6 28.6037,118.6 38.5,116.5C 53.3381,113.457 68.0048,109.79 82.5,105.5C 92.8175,100.676 102.817,95.3425 112.5,89.5C 121.567,80.4302 131.234,72.0969 141.5,64.5C 147.833,63.1667 154.167,63.1667 160.5,64.5C 164.918,68.2467 168.584,72.5801 171.5,77.5C 176.407,102.92 166.74,110.92 142.5,101.5C 139.316,102.923 136.316,104.59 133.5,106.5 Z"/></g>
<g><path style="opacity:0.004" fill="#48ff00" d="M 133.5,106.5 C 133.5,107.833 132.833,108.5 131.5,108.5C 131.5,107.167 132.167,106.5 133.5,106.5 Z"/></g>
</svg>
