<svg width="181" height="181" viewBox="0 0 25 25" fill="none" xmlns="http://www.w3.org/2000/svg">
<path d="M13.875 4.875C13.875 5.91055 13.0355 6.75 12 6.75C10.9645 6.75 10.125 5.91055 10.125 4.875C10.125 3.83945 10.9645 3 12 3C13.0355 3 13.875 3.83945 13.875 4.875ZM12 19.25C10.9645 19.25 10.125 20.0895 10.125 21.125C10.125 22.1605 10.9645 23 12 23C13.0355 23 13.875 22.1605 13.875 21.125C13.875 20.0895 13.0355 19.25 12 19.25ZM20.125 11.125C19.0895 11.125 18.25 11.9645 18.25 13C18.25 14.0355 19.0895 14.875 20.125 14.875C21.1605 14.875 22 14.0355 22 13C22 11.9645 21.1605 11.125 20.125 11.125ZM5.75 13C5.75 11.9645 4.91055 11.125 3.875 11.125C2.83945 11.125 2 11.9645 2 13C2 14.0355 2.83945 14.875 3.875 14.875C4.91055 14.875 5.75 14.0355 5.75 13ZM6.25477 16.8702C5.21922 16.8702 4.37977 17.7097 4.37977 18.7452C4.37977 19.7808 5.21922 20.6202 6.25477 20.6202C7.29031 20.6202 8.12977 19.7808 8.12977 18.7452C8.12977 17.7097 7.29027 16.8702 6.25477 16.8702ZM17.7452 16.8702C16.7097 16.8702 15.8702 17.7097 15.8702 18.7452C15.8702 19.7808 16.7097 20.6202 17.7452 20.6202C18.7808 20.6202 19.6202 19.7808 19.6202 18.7452C19.6202 17.7097 18.7808 16.8702 17.7452 16.8702ZM6.25477 5.37977C5.21922 5.37977 4.37977 6.21922 4.37977 7.25477C4.37977 8.29031 5.21922 9.12977 6.25477 9.12977C7.29031 9.12977 8.12977 8.29031 8.12977 7.25477C8.12977 6.21922 7.29027 5.37977 6.25477 5.37977Z" fill="#BFFF00"/>
</svg>
