<?xml version="1.0" encoding="UTF-8"?>
<!DOCTYPE svg PUBLIC "-//W3C//DTD SVG 1.1//EN" "http://www.w3.org/Graphics/SVG/1.1/DTD/svg11.dtd">
<svg xmlns="http://www.w3.org/2000/svg" version="1.1" width="181px" height="181px" style="shape-rendering:geometricPrecision; text-rendering:geometricPrecision; image-rendering:optimizeQuality; fill-rule:evenodd; clip-rule:evenodd" xmlns:xlink="http://www.w3.org/1999/xlink">
<g><path style="opacity:0.008" fill="#50ff00" d="M 90.5,16.5 C 89.5,16.5 88.5,16.5 87.5,16.5C 88.5,13.8333 89.5,13.8333 90.5,16.5 Z"/></g>
<g><path style="opacity:0.838" fill="#c0ff00" d="M 87.5,16.5 C 88.5,16.5 89.5,16.5 90.5,16.5C 92.5,16.5 94.5,16.5 96.5,16.5C 96.5,24.8333 96.5,33.1667 96.5,41.5C 92.1667,42.8333 87.8333,42.8333 83.5,41.5C 83.5,33.1667 83.5,24.8333 83.5,16.5C 84.8333,16.5 86.1667,16.5 87.5,16.5 Z"/></g>
<g><path style="opacity:0.778" fill="#bfff00" d="M 74.5,32.5 C 74.5,33.8333 75.1667,34.5 76.5,34.5C 77.9027,41.2195 75.4027,45.5529 69,47.5C 67.2399,46.3699 65.4066,45.3699 63.5,44.5C 61.841,40.8678 60.1744,37.2012 58.5,33.5C 55.0038,23.3061 58.3371,19.3061 68.5,21.5C 71.8201,24.4753 73.8201,28.142 74.5,32.5 Z"/></g>
<g><path style="opacity:0.788" fill="#bfff00" d="M 111.5,20.5 C 114.572,20.1826 117.572,20.5159 120.5,21.5C 121.68,23.4542 122.346,25.6209 122.5,28C 121.275,33.2893 119.609,38.4559 117.5,43.5C 110.57,49.2058 105.904,47.7058 103.5,39C 104.412,32.0165 107.078,25.8498 111.5,20.5 Z"/></g>
<g><path style="opacity:0.004" fill="#48ff00" d="M 74.5,32.5 C 75.8333,32.5 76.5,33.1667 76.5,34.5C 76.5,33.1667 75.8333,32.5 74.5,32.5 Z"/></g>
<g><path style="opacity:0.804" fill="#bfff00" d="M 58.5,54.5 C 57.1667,54.5 56.5,55.1667 56.5,56.5C 52.774,56.8226 49.1073,56.4892 45.5,55.5C 43.461,53.1255 41.1277,51.1255 38.5,49.5C 33.5975,42.4022 35.0975,37.4022 43,34.5C 53.3621,37.3399 58.5287,44.0066 58.5,54.5 Z"/></g>
<g><path style="opacity:0.805" fill="#bdff00" d="M 133.5,34.5 C 144.25,35.1 146.917,40.1 141.5,49.5C 138.872,51.1255 136.539,53.1255 134.5,55.5C 130.217,56.4922 125.884,56.8256 121.5,56.5C 121.176,52.4454 121.509,48.4454 122.5,44.5C 125.959,40.6962 129.626,37.3628 133.5,34.5 Z"/></g>
<g><path style="opacity:0.004" fill="#48ff00" d="M 58.5,54.5 C 58.5,55.8333 57.8333,56.5 56.5,56.5C 56.5,55.1667 57.1667,54.5 58.5,54.5 Z"/></g>
<g><path style="opacity:0.791" fill="#bfff00" d="M 23.5,56.5 C 27.1817,56.3347 30.8484,56.5014 34.5,57C 37.2104,58.7468 40.2104,59.7468 43.5,60C 50.5197,66.7965 49.353,71.6299 40,74.5C 33.2345,73.8672 27.4011,71.2005 22.5,66.5C 21.0573,62.8772 21.3906,59.5438 23.5,56.5 Z"/></g>
<g><path style="opacity:0.787" fill="#bfff00" d="M 145.5,56.5 C 149.571,56.2338 153.571,56.5672 157.5,57.5C 159.228,62.2269 158.228,66.2269 154.5,69.5C 148.546,73.2056 142.213,74.539 135.5,73.5C 130.552,69.9723 130.219,65.9723 134.5,61.5C 138.24,59.817 141.906,58.1504 145.5,56.5 Z"/></g>
<g><path style="opacity:0.854" fill="#bdff00" d="M 17.5,81.5 C 25.8333,81.5 34.1667,81.5 42.5,81.5C 43.6736,85.8192 43.6736,90.1526 42.5,94.5C 34.1667,94.5 25.8333,94.5 17.5,94.5C 17.5603,91.979 16.8936,89.6457 15.5,87.5C 16.7545,85.6663 17.4211,83.6663 17.5,81.5 Z"/></g>
<g><path style="opacity:0.854" fill="#bfff00" d="M 137.5,89.5 C 137.5,88.1667 137.5,86.8333 137.5,85.5C 137.5,84.1667 137.5,82.8333 137.5,81.5C 145.833,81.5 154.167,81.5 162.5,81.5C 162.579,83.6663 163.246,85.6663 164.5,87.5C 163.106,89.6457 162.44,91.979 162.5,94.5C 154.167,94.5 145.833,94.5 137.5,94.5C 137.5,92.8333 137.5,91.1667 137.5,89.5 Z"/></g>
<g><path style="opacity:0.008" fill="#67ff00" d="M 137.5,85.5 C 137.5,86.8333 137.5,88.1667 137.5,89.5C 136.414,89.38 135.747,88.7133 135.5,87.5C 135.747,86.2867 136.414,85.62 137.5,85.5 Z"/></g>
<g><path style="opacity:0.811" fill="#bfff00" d="M 33.5,101.5 C 37.226,101.177 40.8927,101.511 44.5,102.5C 46.3294,104.156 47.6628,106.156 48.5,108.5C 47.1667,110.5 45.8333,112.5 44.5,114.5C 41.0073,115.442 37.674,116.775 34.5,118.5C 24.0243,122.022 19.6909,118.355 21.5,107.5C 26.1371,106.515 30.1371,104.515 33.5,101.5 Z"/></g>
<g><path style="opacity:0.809" fill="#bfff00" d="M 135.5,101.5 C 138.898,101.18 142.232,101.513 145.5,102.5C 149.769,104.473 154.102,106.14 158.5,107.5C 160.309,118.355 155.976,122.022 145.5,118.5C 141.799,116.826 138.132,115.159 134.5,113.5C 133.5,111.5 132.5,109.5 131.5,107.5C 132.885,105.464 134.218,103.464 135.5,101.5 Z"/></g>
<g><path style="opacity:0.783" fill="#beff00" d="M 45.5,118.5 C 57.187,115.852 61.187,120.185 57.5,131.5C 53.8695,136.639 49.0361,139.972 43,141.5C 35.0975,138.598 33.5975,133.598 38.5,126.5C 41.2512,124.09 43.5845,121.423 45.5,118.5 Z"/></g>
<g><path style="opacity:0.771" fill="#beff00" d="M 123.5,118.5 C 134.515,117.992 141.515,123.159 144.5,134C 143.148,140.198 139.482,142.364 133.5,140.5C 127.039,137.553 123.039,132.719 121.5,126C 121.303,123.176 121.969,120.676 123.5,118.5 Z"/></g>
<g><path style="opacity:0.775" fill="#bfff00" d="M 67.5,128.5 C 73.141,128.808 76.141,131.808 76.5,137.5C 75.6181,144.043 72.9515,149.71 68.5,154.5C 64.9472,155.966 61.6138,155.632 58.5,153.5C 58.1667,151.667 57.8333,149.833 57.5,148C 58.7248,142.711 60.3914,137.544 62.5,132.5C 64.4894,131.368 66.1561,130.035 67.5,128.5 Z"/></g>
<g><path style="opacity:0.786" fill="#bfff00" d="M 107.5,128.5 C 111.262,128.713 114.596,130.046 117.5,132.5C 119.609,137.544 121.275,142.711 122.5,148C 122.346,150.379 121.68,152.546 120.5,154.5C 115.586,156.526 111.586,155.526 108.5,151.5C 104.794,145.546 103.461,139.213 104.5,132.5C 105.934,131.412 106.934,130.078 107.5,128.5 Z"/></g>
<g><path style="opacity:0.008" fill="#50ff00" d="M 90.5,134.5 C 89.5,134.5 88.5,134.5 87.5,134.5C 88.5,131.833 89.5,131.833 90.5,134.5 Z"/></g>
<g><path style="opacity:0.838" fill="#c0ff00" d="M 87.5,134.5 C 88.5,134.5 89.5,134.5 90.5,134.5C 92.5,134.5 94.5,134.5 96.5,134.5C 96.5,142.833 96.5,151.167 96.5,159.5C 92.1667,160.833 87.8333,160.833 83.5,159.5C 83.5,151.167 83.5,142.833 83.5,134.5C 84.8333,134.5 86.1667,134.5 87.5,134.5 Z"/></g>
</svg>
