<svg width="181" height="181" viewBox="0 0 25 21" fill="none" xmlns="http://www.w3.org/2000/svg">
<path d="M5.59571 9.12551L5.11055 10.9368C4.99298 11.3763 4.96876 11.831 5.01641 12.2802L3.64141 13.4122C3.38477 13.6236 3.0043 13.3954 3.07032 13.0696L3.67345 10.0743C3.71485 9.86887 3.56954 9.67277 3.36095 9.65285L0.319539 9.35793C-0.0113204 9.3259 -0.119133 8.89582 0.15782 8.71184L2.70274 7.02043C2.87696 6.90441 2.9129 6.66301 2.78009 6.50129L0.838289 4.14152C0.626961 3.88488 0.855086 3.5048 1.18126 3.57043L4.17657 4.17355C4.38204 4.21496 4.57813 4.06965 4.59845 3.86105L4.89337 0.819649C4.9254 0.488399 5.35548 0.380977 5.53985 0.65793L7.23126 3.20246C7.34727 3.37668 7.58868 3.41262 7.7504 3.27981L10.1098 1.33801C10.3664 1.12668 10.7465 1.3548 10.6809 1.68059L10.2383 3.87434C10.1324 3.99348 10.0262 4.11223 9.9293 4.24152L8.67345 5.92004L8.25509 6.47941C6.97657 6.8216 5.94337 7.82824 5.59571 9.12551ZM24.9149 14.3017L24.4297 16.1126C24.3074 16.5689 24.0633 16.9568 23.7441 17.2595C23.6379 17.3601 23.5235 17.4515 23.402 17.5329L22.8555 19.5732C22.8109 19.74 22.7344 19.8896 22.6348 20.0177C22.3352 20.4021 21.8246 20.5911 21.3246 20.4571L20.1172 20.1337C19.4504 19.9552 19.0547 19.2696 19.2332 18.6029L19.5566 17.3954L9.89727 14.8071L9.57384 16.0146C9.39532 16.6814 8.70977 17.0771 8.04298 16.8986L6.83556 16.5751C6.33556 16.4411 5.9879 16.022 5.92071 15.5396C5.89845 15.3786 5.90704 15.2107 5.95157 15.0443L6.49806 13.004C6.43341 12.8727 6.37997 12.7361 6.33829 12.5958C6.21329 12.1743 6.19571 11.7161 6.31798 11.2599L6.80313 9.44855C7.01056 8.67512 7.55938 8.08801 8.24415 7.79973C8.4744 7.70271 8.71783 7.64056 8.96641 7.61535L9.67462 6.66887L10.9305 4.99035C11.0652 4.81027 11.2113 4.6427 11.368 4.48879C11.6805 4.18059 12.0332 3.92473 12.4125 3.72668C12.6024 3.62746 12.7988 3.5427 13.0004 3.47316C13.4039 3.33332 13.8281 3.25324 14.2598 3.23723C14.6914 3.22121 15.1313 3.26926 15.5656 3.38566L20.3578 4.66965C20.7922 4.78605 21.1969 4.96418 21.5629 5.19426C22.1091 5.53722 22.572 5.99759 22.918 6.54191C23.2625 7.0841 23.4899 7.70754 23.5695 8.37746L23.818 10.4591L23.9582 11.6329C24.3638 11.9258 24.6731 12.3328 24.8465 12.8021C25.018 13.2661 25.0531 13.7861 24.9149 14.3017V14.3017ZM9.9836 9.65402C9.25899 9.45988 8.64727 9.81184 8.45352 10.5341C8.25977 11.2564 8.61407 11.8669 9.33829 12.0611C10.0629 12.2552 11.1172 12.6669 11.3106 11.9446C11.5043 11.2224 10.7078 9.84816 9.9836 9.65402V9.65402ZM21.3356 10.7544L21.0871 8.67277C21.0645 8.48254 21.0133 8.30051 20.9379 8.13137C20.7113 7.62395 20.266 7.23254 19.7106 7.08371L14.9184 5.79973C14.5564 5.70276 14.1737 5.71647 13.8195 5.83908C13.4654 5.96169 13.1562 6.18758 12.9316 6.48762L11.6758 8.16613L18.3945 9.96613L21.3356 10.7544V10.7544ZM22.0578 12.8892C21.3332 12.695 19.9563 13.4872 19.7629 14.2091C19.5695 14.9314 20.6883 15.1021 21.4129 15.2962C22.1375 15.4904 22.7492 15.1384 22.943 14.4161C23.1363 13.6943 22.7824 13.0833 22.0578 12.8892Z" fill="#BFFF00"/>
</svg>
