<svg width="181" height="181" viewBox="0 0 26 31" fill="none" xmlns="http://www.w3.org/2000/svg">
<g clip-path="url(#clip0_287:85)">
<path d="M13.1094 3C6.42158 3 1 8.42153 1 15.1094C1 21.7972 6.42158 27.2188 13.1094 27.2188C19.7972 27.2188 25.2188 21.7972 25.2188 15.1094C25.2188 8.42158 19.7972 3 13.1094 3ZM19.4623 8.75645C22.658 11.9521 22.8803 16.8366 20.4719 20.2622L7.95654 7.74688C11.3845 5.33691 16.2684 5.56255 19.4623 8.75645ZM6.75645 21.4623C3.56074 18.2666 3.33848 13.3822 5.74683 9.95659L18.2622 22.4719C14.8343 24.8818 9.95039 24.6563 6.75645 21.4623V21.4623Z" fill="#BFFF00"/>
</g>
<defs>
<clipPath id="clip0_287:85">
<rect width="25" height="30" fill="white" transform="translate(0.433167 0.326172)"/>
</clipPath>
</defs>
</svg>
