<svg width="181" height="181" viewBox="0 0 26 26" fill="none" xmlns="http://www.w3.org/2000/svg">
<g clip-path="url(#clip0_286:55)">
<path d="M11.3903 3.83842L7.04608 8.18168H2.06268C1.41522 8.18168 0.890808 8.7061 0.890808 9.35356V16.3848C0.890808 17.0318 1.41522 17.5567 2.06268 17.5567H7.04608L11.3903 21.8999C12.1242 22.6338 13.3908 22.1182 13.3908 21.0713V4.66703C13.3908 3.61918 12.1232 3.10551 11.3903 3.83842ZM23.4318 12.8692L25.6603 10.6407C25.968 10.333 25.968 9.83403 25.6603 9.52641L24.5461 8.41215C24.2385 8.10453 23.7394 8.10453 23.4318 8.41215L21.2033 10.6407L18.9748 8.41215C18.6672 8.10453 18.1682 8.10453 17.8605 8.41215L16.7463 9.52641C16.4387 9.83403 16.4387 10.333 16.7463 10.6407L18.9748 12.8692L16.7468 15.0972C16.4391 15.4048 16.4391 15.9039 16.7468 16.2115L17.861 17.3257C18.1686 17.6333 18.6677 17.6333 18.9753 17.3257L21.2033 15.0977L23.4318 17.3262C23.7394 17.6338 24.2385 17.6338 24.5461 17.3262L25.6603 16.212C25.968 15.9043 25.968 15.4053 25.6603 15.0977L23.4318 12.8692Z" fill="#BFFF00"/>
</g>
<defs>
<clipPath id="clip0_286:55">
<rect width="25" height="25" fill="white" transform="translate(0.890808 0.369141)"/>
</clipPath>
</defs>
</svg>
