<?xml version="1.0" standalone="yes"?>
<svg width="181" height="181">
<path style="fill:#000000; stroke:none;" d="M0 0L0 181L181 181L181 0L0 0z"/>
<path style="fill:#bfff00; stroke:none;" d="M23 71L24 71L20 93C29.6491 93.6275 37.8006 97.3527 48 96.9815C55.3909 96.7125 61.3764 92.5213 68.9853 93.054C76.9199 93.6095 83.5846 97.0038 92 97C101.041 96.9959 108.929 92.0503 117.961 93.1289C130.029 94.5701 152.27 103.461 162.271 90.4668C170.104 80.2896 168.496 69.0491 164.869 58.1312C163.353 53.5682 160.654 46.2368 155.674 44.51C147.295 41.6042 138.036 47.7806 130.289 45.2708C121.785 42.5156 115.614 34.4398 107.384 31.0548C101.97 28.828 93.8071 29.6421 88.0394 30.054C70.0425 31.3393 49.5151 44.8934 32.7253 51.2901C26.7319 53.5735 15.8336 55.5378 12.2554 61.2531C7.84654 68.2952 17.2359 77.5963 23 71z"/>
<path style="fill:#000000; stroke:none;" d="M75 66L76 66C83.4506 59.2729 100.194 54.1867 110 52C101.658 43.0278 92.0966 44.3388 81.7253 48.2901C78.772 49.4153 73.4212 50.1649 71.9861 53.4784C70.6785 56.4976 74.7744 62.5301 75 66z"/>
<path style="fill:#00ff00; stroke:none;" d="M104 48L105 49L104 48z"/>
<path style="fill:#000000; stroke:none;" d="M37 80L60 72C59.961 68.4996 59.7776 62.4649 56.4545 60.2292C53.2768 58.0913 40.1412 63.6883 38.0239 66.5849C35.7419 69.7069 37 76.3102 37 80M141.519 73.8627C134.201 77.0207 138.781 88.2367 145.571 85.1235C152.571 81.9142 148.484 70.8565 141.519 73.8627z"/>
<path style="fill:#00ff00; stroke:none;" d="M148 75L149 76L148 75M149 76L150 77L149 76M102 95L103 96L102 95M30.6667 96.3333L31.3333 96.6667L30.6667 96.3333M53 96L54 97L53 96M101 96L102 97L101 96M149.667 96.3333L150.333 96.6667L149.667 96.3333z"/>
<path style="fill:#bfff00; stroke:none;" d="M12 102L10 109L10 110L12 115L32.0394 120.946L66 117.91L99.9853 120.981L114 117.91L148.961 120.946L169 115L169 102L134.001 105.995L112.039 102.054L93 106L68.9606 102.054L46.9992 105.995L12 102z"/>
<path style="fill:#00ff00; stroke:none;" d="M64 117L65 118L64 117M112 117L113 118L112 117M20.6667 118.333L21.3333 118.667L20.6667 118.333M63 118L64 119L63 118M111 118L112 119L111 118M159.667 118.333L160.333 118.667L159.667 118.333z"/>
<path style="fill:#bfff00; stroke:none;" d="M12 126L10 133L10 134L12 139L51.9853 144.981L67 141.715L98.9961 144.995L114 141.91L149.91 144.871L169 139L169 126L134.001 129.995L112.039 126.054L93 130L68.9606 126.054L46.9992 129.995L12 126z"/>
<path style="fill:#00ff00; stroke:none;" d="M64 141L65 142L64 141M68 141L68 143L70 143L68 141M112 141L113 142L112 141M20.6667 142.333L21.3333 142.667L20.6667 142.333M63 142L64 143L63 142M111 142L112 143L111 142M159.667 142.333L160.333 142.667L159.667 142.333z"/>
</svg>
